<?xml version="1.0" encoding="UTF-8" standalone="no"?>
<svg
   xmlns:dc="http://purl.org/dc/elements/1.1/"
   xmlns:cc="http://creativecommons.org/ns#"
   xmlns:rdf="http://www.w3.org/1999/02/22-rdf-syntax-ns#"
   xmlns:svg="http://www.w3.org/2000/svg"
   xmlns="http://www.w3.org/2000/svg"
   width="210mm"
   height="297mm"
   viewBox="0 0 210 297"
   version="1.1"
   id="svg8">
  <defs
     id="defs2" />
  <metadata
     id="metadata5">
    <rdf:RDF>
      <cc:Work
         rdf:about="">
        <dc:format>image/svg+xml</dc:format>
        <dc:type
           rdf:resource="http://purl.org/dc/dcmitype/StillImage" />
        <dc:title></dc:title>
      </cc:Work>
    </rdf:RDF>
  </metadata>
  <g
     id="layer1">
    <path
       id="path57"
       style="fill:#b08d57;fill-opacity:1;stroke:none;stroke-width:16.672;stroke-miterlimit:4;stroke-dasharray:none;stroke-opacity:1"
       d="M 104.43305,19.69337 A 96.746159,128.5622 0 0 0 7.9533682,148.25593 96.746159,128.5622 0 0 0 104.69948,276.81756 a 96.746159,128.5622 0 0 0 96.7461,-128.56163 96.746159,128.5622 0 0 0 -96.7461,-128.56256 96.746159,128.5622 0 0 0 -0.26643,0 z m 31.27453,40.338489 c 0.10155,0.006 0.19477,0.02017 0.28,0.04528 -1.01487,3.287985 -1.28328,6.598093 -0.35978,9.942122 0.6204,2.619125 0.32068,5.55633 1.79887,7.878667 2.06033,0.110615 5.88842,-3.241155 6.61994,-0.527414 1.70918,4.425943 3.18493,8.90508 3.2252,13.713805 0.62332,1.988487 -0.71503,6.909927 2.70052,4.724137 2.98353,-2.02816 3.28983,2.35263 4.68426,4.12779 2.84454,3.949164 1.78026,9.081424 2.54829,13.659454 0.021,2.65656 -0.0484,6.11069 3.35576,3.92123 2.42176,-0.4262 2.10037,4.52092 3.38018,6.33176 1.73561,3.99496 -0.3202,8.41862 -0.37607,12.61638 -2.01545,3.90823 4.37427,0.99423 3.30496,4.54375 0.0486,3.94071 1.20191,8.09087 -1.24152,11.55794 -1.34059,2.99789 -2.68117,5.99629 -4.02179,8.99418 3.47827,-0.16993 4.67628,1.21611 3.0766,4.51211 -1.23981,4.77309 -4.18685,8.95452 -6.34443,13.35494 -0.76863,1.83094 -5.01761,4.95212 -3.48892,5.93121 2.65385,0.50583 6.14496,0.65987 2.89624,3.6457 -1.97723,3.17023 -3.69545,6.58599 -7.11562,8.39069 -7.23068,5.63248 -16.54784,7.97398 -23.24542,14.39618 -2.36287,1.48896 -4.09827,3.31951 -3.69103,6.31542 -1.06062,3.71019 2.3008,6.49494 3.53152,9.72556 1.7404,3.23824 3.48127,6.47644 5.22167,9.71468 -0.24596,0.26029 -0.49261,0.51984 -0.73856,0.78023 -1.64477,1.30763 -5.52272,0.0237 -6.93986,-1.28775 -5.40045,-10.34443 -11.32209,-20.45357 -16.39348,-30.94643 -1.11509,-3.25128 -2.22977,-6.50237 -3.34486,-9.75364 5.89584,-2.37309 12.24895,-3.80045 17.84163,-6.80117 6.39962,-3.81589 12.16565,-8.49893 17.72018,-13.47188 3.84128,-2.18127 1.06535,-3.37626 -1.18441,-0.57541 -4.40302,3.6122 -8.64615,7.47964 -14.01375,9.55608 -5.13167,2.77107 -10.36215,5.28217 -16.07542,6.52838 -2.49192,0.64369 -5.54796,2.65325 -6.22936,-1.08744 -2.3336,-8.71631 -3.820874,-17.63144 -4.832854,-26.61116 6.971774,-2.68363 14.306294,-4.61686 21.044234,-7.78439 6.08055,-4.27196 12.90278,-7.62011 17.71296,-13.47367 3.37711,-3.09771 0.0158,-2.31037 -1.67652,0.0988 -4.75519,4.73982 -10.95054,7.56066 -16.62372,10.94351 -6.20472,1.86419 -12.40985,3.72802 -18.61462,5.59226 -3.419054,-0.16677 -1.504424,-4.14736 -1.940184,-6.44775 -0.21654,-6.28509 1.373,-12.42476 2.133194,-18.63096 5.74144,-2.28861 11.87141,-3.86815 17.37677,-6.58732 3.2354,-2.6281 6.47016,-5.25689 9.70562,-7.88498 -1.30212,-1.79275 -4.00139,2.39447 -5.8533,2.95333 -2.77997,2.26694 -5.77586,4.04754 -9.37485,4.46948 -3.63309,0.90482 -7.26688,1.81022 -10.89995,2.71506 2.65909,-6.60255 4.38367,-13.66002 7.67203,-19.95675 1.82786,-3.05465 3.65563,-6.10905 5.48354,-9.16368 -3.10105,0.81701 -4.14064,4.69077 -6.32902,6.86098 -3.88879,4.95715 -7.58759,10.03504 -10.098014,15.87062 -0.94277,2.03507 -2.61645,6.57024 -5.07664,3.47445 -2.967028,-2.31287 -5.484282,-4.9993 -7.005082,-8.51212 -2.001396,-4.32572 -1.663803,-1.83509 -1.069343,1.401 0.318054,3.40341 3.686066,5.45835 5.350328,8.26652 1.432924,2.22518 4.526857,4.06729 2.851887,7.00872 -1.47979,7.23834 -4.001173,14.33798 -3.653883,21.81903 0.180861,4.10115 -4.023901,0.6242 -5.607701,-0.6543 -4.483618,-3.43641 -9.811786,-5.96359 -12.832966,-10.97341 -1.971424,-2.01856 -3.02555,-5.34292 -6.095222,-5.79888 2.895632,5.6376 7.315405,10.33748 11.201786,15.24981 4.234589,3.03627 8.469648,6.07221 12.704249,9.10842 0.737317,8.28118 1.494077,16.55909 3.598613,24.61835 0.588984,2.69332 2.139764,6.54142 -1.806987,3.78619 -5.504476,-2.33837 -11.388582,-3.97257 -15.954002,-8.05179 -3.355802,-2.69625 -7.388289,-4.75597 -10.307306,-7.86323 -1.330986,-4.09401 -2.937577,-1.76324 -0.734069,0.67696 5.086099,4.5018 9.273829,10.22421 15.550751,13.10843 4.91777,3.18932 10.186392,5.62632 15.724697,7.48629 3.48729,8.05894 6.177494,16.50386 10.244814,24.28213 -12.463594,-5.01501 -25.3274,-9.25359 -37.193936,-15.59694 -5.444621,-3.767 -11.045558,-7.34135 -15.435635,-12.40616 -5.266034,-4.38711 -7.604651,-11.10945 -11.31323,-16.73874 -3.551147,-3.28834 5.989291,-0.69997 2.260995,-3.60312 -2.405666,-2.28176 -3.953655,-5.05653 -4.633483,-8.33087 -1.183392,-4.61154 -3.953517,-9.01766 -2.892664,-13.92044 -0.803109,-3.3327 6.722248,-0.31021 3.372051,-4.04988 -2.331751,-3.39781 -0.598076,-7.76816 -0.95061,-11.63946 0.650551,-2.80754 1.787218,-5.52925 2.623503,-8.3037 2.454755,-0.2956 6.175676,0.83968 4.328973,-2.36071 2.058557,-4.01113 3.373071,-8.57446 5.906748,-12.23302 1.980609,-1.81696 3.961495,-3.63398 5.942058,-5.45093 2.859209,1.77404 4.804555,1.19772 5.649376,-2.21209 2.436196,-4.18708 3.765185,-9.259934 8.002841,-12.007414 2.007567,-1.412083 3.820821,-4.113445 5.949304,-4.722287 2.549267,1.557233 4.871688,2.353517 5.892221,-1.221572 3.930083,-4.197818 8.452392,-7.97589 13.586984,-10.629976 2.40445,-0.920302 4.743274,-3.879557 7.192644,-3.410096 2.452,1.90642 4.81159,2.027758 7.04401,-0.303587 5.99652,-3.739659 11.58507,-8.299548 18.45609,-10.280113 2.0708,-0.55595 5.33687,-2.52008 6.86098,-2.431418 z" />
  </g>
</svg>
